<svg id="btn:_favorite" data-name="btn: favorite" xmlns="http://www.w3.org/2000/svg" width="35" height="35"><defs><style>.cls-1{fill:#fff;stroke:#e5e5e5;stroke-linejoin:round;stroke-width:1px}.cls-2{fill:#e31937;fill-rule:evenodd}</style></defs><circle id="heart_bkg" data-name="heart bkg" class="cls-1" cx="17.5" cy="17.5" r="17"/><path id="icon:_heart" data-name="icon: heart" class="cls-2" d="M692.5 589.829a6.032 6.032 0 0 0-4.5 2.054 6.032 6.032 0 0 0-4.5-2.054 5.4 5.4 0 0 0-5.5 5.405c0 3.715 3.4 6.742 8.55 11.342l1.45 1.287 1.45-1.3c5.15-4.59 8.55-7.617 8.55-11.332a5.4 5.4 0 0 0-5.5-5.402zm-4.4 15.282l-.1.1-.1-.1c-4.76-4.235-7.9-7.037-7.9-9.877a3.389 3.389 0 0 1 3.5-3.44 3.911 3.911 0 0 1 3.57 2.32h1.87a3.886 3.886 0 0 1 3.56-2.32 3.389 3.389 0 0 1 3.5 3.44c0 2.84-3.14 5.642-7.9 9.877z" transform="translate(-670.5 -580.5)"/></svg>