<?xml version="1.0" encoding="utf-8"?>
<!-- Generator: Adobe Illustrator 19.2.1, SVG Export Plug-In . SVG Version: 6.00 Build 0)  -->
<svg version="1.1" id="Layer_1" xmlns="http://www.w3.org/2000/svg" xmlns:xlink="http://www.w3.org/1999/xlink" x="0px" y="0px"
	 viewBox="0 0 23 19" style="enable-background:new 0 0 23 19;" xml:space="preserve">
<style type="text/css">
	.st0{fill:#3C6D8E;}
</style>
<path id="icon:_heart_check" class="st0" d="M21.5,4.7L10,16l-4.1-4.1l-1.4,1.4l5.5,5.4L22.9,6.1L21.5,4.7z M19.5,4
	c-0.9-2-2.9-3.2-5-3.2c-1.7,0-3.4,0.8-4.5,2.1c-1.1-1.3-2.8-2-4.5-2.1c-3,0-5.4,2.3-5.5,5.3v0.1c0,2,1,3.8,2.6,5.7
	c0.5-0.4,1-0.8,1.5-1.3C2.8,9.1,2,7.7,2,6.2c0-1.9,1.5-3.4,3.3-3.4c0.1,0,0.1,0,0.2,0c1.5,0,2.9,0.9,3.6,2.3H11
	c0.6-1.4,2-2.3,3.6-2.3c1.5,0,2.8,0.9,3.3,2.2C17.7,5,19.5,4,19.5,4L19.5,4z"/>
</svg>
