<svg xmlns="http://www.w3.org/2000/svg" width="22.906" height="17.91" viewBox="0 0 22.906 17.91">
  <defs>
    <style>
      .cls-1 {
        fill: #00937e;
        fill-rule: evenodd;
      }
    </style>
  </defs>
  <path id="icon:_heart_check" data-name="icon: heart/check" class="cls-1" d="M813.5,1139.71L802.02,1151l-4.139-4.05-1.4,1.37,5.535,5.44,12.881-12.68Zm-1.959-.68a5.447,5.447,0,0,0-5.036-3.2,6.021,6.021,0,0,0-4.5,2.05,6.021,6.021,0,0,0-4.5-2.05,5.4,5.4,0,0,0-5.5,5.4c0,1.98.959,3.76,2.63,5.68a18.947,18.947,0,0,0,1.533-1.26c-1.379-1.59-2.163-3-2.163-4.42a3.392,3.392,0,0,1,3.5-3.44,3.922,3.922,0,0,1,3.57,2.32h1.87a3.9,3.9,0,0,1,3.56-2.32,3.4,3.4,0,0,1,3.295,2.24C809.749,1140.03,811.511,1139.02,811.536,1139.03Z" transform="translate(-792 -1135.84)"/>
</svg>
