<svg xmlns="http://www.w3.org/2000/svg" width="16.75" height="16" viewBox="0 0 16.75 16">
  <defs>
    <style>
      .cls-1 {
        fill: #386a89;
        fill-rule: evenodd;
      }
    </style>
  </defs>
  <path id="icon:_linkedin" data-name="icon: linkedin" class="cls-1" d="M184.323,6649.7h3.6v10.8h-3.6v-10.8Zm15.426,0.98a3.889,3.889,0,0,0-3-1.23,4.091,4.091,0,0,0-1.25.17,2.844,2.844,0,0,0-.95.47,4.142,4.142,0,0,0-.617.57,4.858,4.858,0,0,0-.426.57v-1.53h-3.592l0.011,0.52c0.008,0.35.011,1.43,0.011,3.23s-0.007,4.15-.022,7.05H193.5v-6.03a2.625,2.625,0,0,1,.12-0.88,2.309,2.309,0,0,1,.694-0.93,1.775,1.775,0,0,1,1.152-.38,1.562,1.562,0,0,1,1.381.65,3.138,3.138,0,0,1,.442,1.79v5.78h3.592v-6.19A5.211,5.211,0,0,0,199.749,6650.68Zm-13.6-6.18a2.027,2.027,0,0,0-1.469.53,1.735,1.735,0,0,0-.562,1.33,1.776,1.776,0,0,0,.546,1.33,1.96,1.96,0,0,0,1.441.54h0.022a2.045,2.045,0,0,0,1.479-.54,1.718,1.718,0,0,0,.552-1.33,1.8,1.8,0,0,0-.557-1.33A1.969,1.969,0,0,0,186.146,6644.5Z" transform="translate(-184.125 -6644.5)"/>
</svg>
