<svg xmlns="http://www.w3.org/2000/svg" width="9.312" height="20" viewBox="0 0 9.312 20">
  <defs>
    <style>
      .cls-1 {
        fill: #386a89;
        fill-rule: evenodd;
      }
    </style>
  </defs>
  <path id="icon:_facebook" data-name="icon: facebook" class="cls-1" d="M123.039,6649.05v-1.72a4.023,4.023,0,0,1,.036-0.61,1.1,1.1,0,0,1,.164-0.41,0.655,0.655,0,0,1,.412-0.29,3.051,3.051,0,0,1,.758-0.08h1.721v-3.45h-2.751a4.461,4.461,0,0,0-3.43,1.14,4.767,4.767,0,0,0-1.042,3.34v2.08h-2.061v3.45h2.061v10.01h4.132V6652.5h2.751l0.364-3.45h-3.115Z" transform="translate(-116.844 -6642.5)"/>
</svg>
