<svg xmlns="http://www.w3.org/2000/svg" width="19.75" height="16" viewBox="0 0 19.75 16">
  <defs>
    <style>
      .cls-1 {
        fill: #376988;
        fill-rule: evenodd;
      }
    </style>
  </defs>
  <path id="icon:_twitter" data-name="icon: twitter" class="cls-1" d="M167.86,6646.4a8.412,8.412,0,0,1-2.327.63,3.943,3.943,0,0,0,1.777-2.23,7.943,7.943,0,0,1-2.565.98,4.04,4.04,0,0,0-7,2.76,4.368,4.368,0,0,0,.1.92,11.156,11.156,0,0,1-4.649-1.24,11.539,11.539,0,0,1-3.685-2.98,4.04,4.04,0,0,0-.062,3.96,4.077,4.077,0,0,0,1.314,1.44,4.158,4.158,0,0,1-1.827-.51v0.05a3.871,3.871,0,0,0,.919,2.56,3.968,3.968,0,0,0,2.322,1.4,4.258,4.258,0,0,1-1.064.13,5.323,5.323,0,0,1-.763-0.06,4.027,4.027,0,0,0,3.778,2.8,7.911,7.911,0,0,1-5.017,1.72,9.7,9.7,0,0,1-.976-0.04,11.3,11.3,0,0,0,6.206,1.81,11.929,11.929,0,0,0,4.042-.68,10.467,10.467,0,0,0,3.228-1.83,12.219,12.219,0,0,0,2.309-2.63,11.659,11.659,0,0,0,1.445-3.1,11.47,11.47,0,0,0,.475-3.25c0-.23,0-0.4-0.012-0.52A8.514,8.514,0,0,0,167.86,6646.4Z" transform="translate(-148.125 -6644.5)"/>
</svg>
