<svg height="21.338" width="24" xmlns="http://www.w3.org/2000/svg"><path fill="#fcd116" d="M11.494.38a1.62 1.617 0 0 0-.81.808L.559 18.572a1.62 1.617 0 0 0-.202.404 1.62 1.617 0 0 0 0 .606 1.62 1.617 0 0 0 .202.606 1.62 1.617 0 0 0 1.013.809 1.62 1.617 0 0 0 .405 0h20.046a1.62 1.617 0 0 0 .405 0 1.62 1.617 0 0 0 1.013-.809 1.62 1.617 0 0 0 .202-.606 1.62 1.617 0 0 0 0-.606 1.62 1.617 0 0 0-.202-.404L13.316 1.188A1.62 1.617 0 0 0 12.304.38a1.62 1.617 0 0 0-.81 0z" stroke="#332a05" stroke-width=".657"/><path fill="#332a05" d="M12.312 14.724c.02-2.816.096-3.616.46-5.12.27-1.12.346-1.616.346-2.08 0-1.024-.384-1.52-1.17-1.52s-1.191.512-1.191 1.504c0 .48.077.976.345 2.096.365 1.504.423 2.256.461 5.12h.75m-.366 1.28c-.672 0-1.21.448-1.21.992 0 .56.538 1.008 1.191 1.008.672 0 1.21-.448 1.21-1.008 0-.544-.538-.992-1.19-.992"/></svg>