<svg id="Layer_1" data-name="Layer 1" xmlns="http://www.w3.org/2000/svg" viewBox="0 0 24.47 17.42"><defs><style>.cls-1{fill:#3c6d8e;}</style></defs><title>NCQA_Hamburger</title><path class="cls-1" d="M323.14,28.22v1a0.42,0.42,0,0,1-.26.35,1.22,1.22,0,0,1-.61.15H299.54a1.21,1.21,0,0,1-.61-0.15,0.42,0.42,0,0,1-.26-0.35v-1a0.42,0.42,0,0,1,.26-0.35,1.22,1.22,0,0,1,.61-0.15h22.73a1.22,1.22,0,0,1,.61.15A0.42,0.42,0,0,1,323.14,28.22Z" transform="translate(-298.67 -12.3)"/><path class="cls-1" d="M323.14,20.51v1a0.42,0.42,0,0,1-.26.35,1.22,1.22,0,0,1-.61.15H299.54a1.21,1.21,0,0,1-.61-0.15,0.42,0.42,0,0,1-.26-0.35v-1a0.42,0.42,0,0,1,.26-0.35,1.22,1.22,0,0,1,.61-0.15h22.73a1.22,1.22,0,0,1,.61.15A0.42,0.42,0,0,1,323.14,20.51Z" transform="translate(-298.67 -12.3)"/><path class="cls-1" d="M323.14,12.8v1a0.42,0.42,0,0,1-.26.35,1.22,1.22,0,0,1-.61.15H299.54a1.21,1.21,0,0,1-.61-0.15,0.42,0.42,0,0,1-.26-0.35v-1a0.42,0.42,0,0,1,.26-0.35,1.22,1.22,0,0,1,.61-0.15h22.73a1.22,1.22,0,0,1,.61.15A0.42,0.42,0,0,1,323.14,12.8Z" transform="translate(-298.67 -12.3)"/></svg>