<svg id="Layer_1" data-name="Layer 1" xmlns="http://www.w3.org/2000/svg" viewBox="0 0 18.2 18.2"><defs><style>.cls-1{fill:#3c6d8e;}</style></defs><title>NCCA_Hamburger_Close</title><path class="cls-1" d="M700.05,12l0.71,0.71a0.42,0.42,0,0,1,.06.43,1.22,1.22,0,0,1-.33.54L684.42,29.75a1.21,1.21,0,0,1-.54.33,0.42,0.42,0,0,1-.43-0.06l-0.71-.71a0.42,0.42,0,0,1-.07-0.43,1.22,1.22,0,0,1,.33-0.54l16.07-16.07a1.22,1.22,0,0,1,.54-0.33A0.42,0.42,0,0,1,700.05,12Z" transform="translate(-682.65 -11.91)"/><path class="cls-1" d="M700.76,29.31l-0.71.71a0.42,0.42,0,0,1-.43.06,1.22,1.22,0,0,1-.54-0.33L683,13.68a1.21,1.21,0,0,1-.33-0.54,0.42,0.42,0,0,1,.06-0.43l0.71-.71a0.42,0.42,0,0,1,.43-0.07,1.22,1.22,0,0,1,.54.33l16.07,16.07a1.22,1.22,0,0,1,.33.54A0.42,0.42,0,0,1,700.76,29.31Z" transform="translate(-682.65 -11.91)"/></svg>